<?xml version="1.0" encoding="UTF-8" standalone="no"?>
<svg
   xmlns:dc="http://purl.org/dc/elements/1.1/"
   xmlns:cc="http://creativecommons.org/ns#"
   xmlns:rdf="http://www.w3.org/1999/02/22-rdf-syntax-ns#"
   xmlns:svg="http://www.w3.org/2000/svg"
   xmlns="http://www.w3.org/2000/svg"
   xmlns:sodipodi="http://sodipodi.sourceforge.net/DTD/sodipodi-0.dtd"
   xmlns:inkscape="http://www.inkscape.org/namespaces/inkscape"
   id="svg2"
   height="144"
   width="144"
   version="1.1"
   inkscape:version="0.91 r13725"
   sodipodi:docname="quickqr.svg">
  <sodipodi:namedview
     pagecolor="#ffffff"
     bordercolor="#666666"
     borderopacity="1"
     objecttolerance="10"
     gridtolerance="10"
     guidetolerance="10"
     inkscape:pageopacity="0"
     inkscape:pageshadow="2"
     inkscape:window-width="1360"
     inkscape:window-height="697"
     id="namedview9"
     showgrid="false"
     inkscape:zoom="1.6388889"
     inkscape:cx="-12.20339"
     inkscape:cy="72"
     inkscape:window-x="0"
     inkscape:window-y="306"
     inkscape:window-maximized="1"
     inkscape:current-layer="svg2" />
  <metadata
     id="metadata17">
    <rdf:RDF>
      <cc:Work
         rdf:about="">
        <dc:format>image/svg+xml</dc:format>
        <dc:type
           rdf:resource="http://purl.org/dc/dcmitype/StillImage" />
        <dc:title>QR Code</dc:title>
        <cc:license
           rdf:resource="http://creativecommons.org/licenses/by/3.0/" />
      </cc:Work>
      <cc:License
         rdf:about="http://creativecommons.org/licenses/by/3.0/">
        <cc:permits
           rdf:resource="http://creativecommons.org/ns#Reproduction" />
        <cc:permits
           rdf:resource="http://creativecommons.org/ns#Distribution" />
        <cc:requires
           rdf:resource="http://creativecommons.org/ns#Notice" />
        <cc:requires
           rdf:resource="http://creativecommons.org/ns#Attribution" />
        <cc:permits
           rdf:resource="http://creativecommons.org/ns#DerivativeWorks" />
      </cc:License>
    </rdf:RDF>
  </metadata>
  <defs
     id="defs15" />
  <!---->
  <title
     id="title4"></title>
  <desc
     id="desc6"></desc>
  <g
     transform="translate(-10.2,-10)"
     id="elements">
    <path
       id="path11"
       d="m 10.2,10 10,0 0,10 -10,0 z m 10,0 10,0 0,10 -10,0 z m 10,0 10,0 0,10 -10,0 z m 10,0 10,0 0,10 -10,0 z m 10,0 10,0 0,10 -10,0 z m 10,0 10,0 0,10 -10,0 z m 10,0 10,0 0,10 -10,0 z m 14,0 10,0 0,10 -10,0 z m 10,0 10,0 0,10 -10,0 z m 10,0 10,0 0,10 -10,0 z m 10,0 10,0 0,10 -10,0 z m 10,0 10,0 0,10 -10,0 z m 10,0 10,0 0,10 -10,0 z m 10,0 10,0 0,10 -10,0 z m -134,10 10,0 0,10 -10,0 z m 60,0 10,0 0,10 -10,0 z m 14,0 10,0 0,10 -10,0 z m 60,0 10,0 0,10 -10,0 z m -134,10 10,0 0,10 -10,0 z m 20,0 10,0 0,10 -10,0 z m 10,0 10,0 0,10 -10,0 z m 10,0 10,0 0,10 -10,0 z m 20,0 10,0 0,10 -10,0 z m 14,0 10,0 0,10 -10,0 z m 20,0 10,0 0,10 -10,0 z m 10,0 10,0 0,10 -10,0 z m 10,0 10,0 0,10 -10,0 z m 20,0 10,0 0,10 -10,0 z m -134,10 10,0 0,10 -10,0 z m 20,0 10,0 0,10 -10,0 z m 10,0 10,0 0,10 -10,0 z m 10,0 10,0 0,10 -10,0 z m 20,0 10,0 0,10 -10,0 z m 14,0 10,0 0,10 -10,0 z m 20,0 10,0 0,10 -10,0 z m 10,0 10,0 0,10 -10,0 z m 10,0 10,0 0,10 -10,0 z m 20,0 10,0 0,10 -10,0 z m -134,10 10,0 0,10 -10,0 z m 20,0 10,0 0,10 -10,0 z m 10,0 10,0 0,10 -10,0 z m 10,0 10,0 0,10 -10,0 z m 20,0 10,0 0,10 -10,0 z m 14,0 10,0 0,10 -10,0 z m 20,0 10,0 0,10 -10,0 z m 10,0 10,0 0,10 -10,0 z m 10,0 10,0 0,10 -10,0 z m 20,0 10,0 0,10 -10,0 z m -134,10 10,0 0,10 -10,0 z m 60,0 10,0 0,10 -10,0 z m 14,0 10,0 0,10 -10,0 z m 60,0 10,0 0,10 -10,0 z m -134,10 10,0 0,10 -10,0 z m 10,0 10,0 0,10 -10,0 z m 10,0 10,0 0,10 -10,0 z m 10,0 10,0 0,10 -10,0 z m 10,0 10,0 0,10 -10,0 z m 10,0 10,0 0,10 -10,0 z m 10,0 10,0 0,10 -10,0 z m 14,0 10,0 0,10 -10,0 z m 10,0 10,0 0,10 -10,0 z m 10,0 10,0 0,10 -10,0 z m 10,0 10,0 0,10 -10,0 z m 10,0 10,0 0,10 -10,0 z m 10,0 10,0 0,10 -10,0 z m 10,0 10,0 0,10 -10,0 z m -50,14 -10,0 z m 10,0 -10,0 z m 20,0 -10,0 z m -40,0 10,0 0,10 -10,0 z m 10,0 10,0 0,10 -10,0 z m 10,0 10,0 0,10 -10,0 z m 10,0 10,0 0,10 -10,0 z m 10,0 10,0 0,10 -10,0 z m 10,0 0,10 z m -50,10 0,10 z m 0,0 10,0 0,10 -10,0 z m 40,0 10,0 0,10 -10,0 z m 10,0 0,10 z m -124,-10 10,0 0,10 -10,0 z m 10,0 10,0 0,10 -10,0 z m 10,0 10,0 0,10 -10,0 z m 10,0 10,0 0,10 -10,0 z m 10,0 10,0 0,10 -10,0 z m 10,0 10,0 0,10 -10,0 z m 10,0 10,0 0,10 -10,0 z m 14,20 10,0 0,10 -10,0 z m 20,0 10,0 0,10 -10,0 z m 20,0 10,0 0,10 -10,0 z m -114,-10 10,0 0,10 -10,0 z m 60,0 10,0 0,10 -10,0 z m 14,20 10,0 0,10 -10,0 z m 40,0 10,0 0,10 -10,0 z m -114,-10 10,0 0,10 -10,0 z m 20,0 10,0 0,10 -10,0 z m 10,0 10,0 0,10 -10,0 z m 10,0 10,0 0,10 -10,0 z m 20,0 10,0 0,10 -10,0 z m 14,20 0,10 z m 0,0 10,0 0,10 -10,0 z m 10,0 10,0 0,10 -10,0 z m 10,0 10,0 0,10 -10,0 z m 10,0 10,0 0,10 -10,0 z m 10,0 10,0 0,10 -10,0 z m -114,-10 10,0 0,10 -10,0 z m 20,0 10,0 0,10 -10,0 z m 10,0 10,0 0,10 -10,0 z m 10,0 10,0 0,10 -10,0 z m 20,0 10,0 0,10 -10,0 z m 24,20 10,0 z m 10,0 10,0 z m 20,0 10,0 z m -114,-10 10,0 0,10 -10,0 z m 20,0 10,0 0,10 -10,0 z m 10,0 10,0 0,10 -10,0 z m 10,0 10,0 0,10 -10,0 z m 20,0 10,0 0,10 -10,0 z m -60,10 10,0 0,10 -10,0 z m 60,0 10,0 0,10 -10,0 z m -60,10 10,0 0,10 -10,0 z m 10,0 10,0 0,10 -10,0 z m 10,0 10,0 0,10 -10,0 z m 10,0 10,0 0,10 -10,0 z m 10,0 10,0 0,10 -10,0 z m 10,0 10,0 0,10 -10,0 z m 10,0 10,0 0,10 -10,0 z"
       style="fill:#000000" />
  </g>
</svg>
